<?xml version="1.0" encoding="utf-8"?>
<!-- Generator: Adobe Illustrator 26.4.1, SVG Export Plug-In . SVG Version: 6.00 Build 0)  -->
<svg version="1.0" id="katman_1" xmlns="http://www.w3.org/2000/svg" xmlns:xlink="http://www.w3.org/1999/xlink" x="0px" y="0px"
	 viewBox="0 0 1190.55 841.89" style="enable-background:new 0 0 1190.55 841.89;" xml:space="preserve">
<line x1="846.54" y1="451.96" x2="846.37" y2="451.54"/>
<polygon points="661.09,565.46 650.73,591.1 647.66,598.69 627.92,647.59 608.15,696.53 601.83,712.13 596.48,725.38 584.82,696.53 
	565.05,647.59 552.9,617.53 545.27,598.69 531.64,564.91 525.53,549.79 505.76,500.86 504,496.51 485.98,451.96 480.19,437.53 
	474.35,451.96 455.1,499.61 454.61,500.86 434.84,549.79 303.94,549.79 308.36,538.82 323.72,500.86 343.46,451.96 357.26,417.79 
	363.23,403.06 382.97,354.12 402.74,305.22 406.16,296.76 414.72,275.58 422.48,256.32 442.26,207.38 455.1,175.63 462.03,158.48 
	479.36,115.62 496.68,158.48 504,176.6 516.42,207.38 536.19,256.32 544.79,277.61 552.9,297.66 555.97,305.22 575.71,354.12 
	595.48,403.06 596.28,404.99 601.83,418.76 615.26,451.96 635,500.86 650.73,539.82 654.77,549.79 "/>
<polygon points="886.06,549.79 761.44,549.79 748.57,517.94 741.67,500.86 721.89,451.96 714.44,433.46 702.15,403.06 
	699.63,396.84 682.38,354.12 662.61,305.22 650.73,275.78 650.73,270.16 656.32,256.32 676.1,207.38 695.84,158.48 699.63,149.13 
	711.92,118.73 727.97,158.48 747.74,207.38 748.57,209.45 767.48,256.32 776.73,279.2 787.26,305.22 797.47,330.52 806.99,354.12 
	826.77,403.06 846.37,451.54 846.37,451.96 846.54,451.96 866.28,500.86 "/>
</svg>
